<svg width="55" height="55" xmlns="http://www.w3.org/2000/svg">
 <g id="Layer_1">
  <title>Layer 1</title>
  <desc>Produce by Acme CAD Converter</desc>
  <path stroke-width="0.2" stroke="black" fill="black" d="m272.74646,327.11502l1.91,0l-1.91,-5.54001l0,5.54001z" id="svg_51"/>
  <path stroke-width="0.2" stroke="black" fill="black" d="m274.65646,327.11502l0,-5.54001l-1.91,0l1.91,5.54001z" id="svg_50"/>
  <path stroke-width="0.2" stroke="black" fill="black" d="m272.74646,321.57501l1.91,0l-1.91,-9.16998l0,9.16998z" id="svg_49"/>
  <path stroke-width="0.2" stroke="black" fill="black" d="m274.65646,321.57501l0,-9.16998l-1.91,0l1.91,9.16998z" id="svg_48"/>
  <path stroke-width="0.2" stroke="black" fill="black" d="m274.65646,321.57501l42.96002,0l-42.96002,-9.16998l0,9.16998z" id="svg_47"/>
  <path stroke-width="0.2" stroke="black" fill="black" d="m317.61649,321.57501l0,-9.16998l-42.96002,0l42.96002,9.16998z" id="svg_46"/>
  <path stroke-width="0.2" stroke="black" fill="black" d="m317.61649,321.57501l0.26001,0l-0.26001,-9.16998l0,9.16998z" id="svg_45"/>
  <path stroke-width="0.2" stroke="black" fill="black" d="m317.8765,321.57501l0,-7.88004l-0.26001,-1.28995l0.26001,9.16998l0,0.00001z" id="svg_44"/>
  <path stroke-width="0.2" stroke="black" fill="black" d="m317.8765,313.69498l0,-1.28995l-0.26001,0l0.26001,1.28995z" id="svg_43"/>
  <path stroke-width="0.2" stroke="black" fill="black" d="m317.8765,321.57501l0.21997,0l-0.21997,-7.88004l0,7.88004z" id="svg_42"/>
  <path stroke-width="0.2" stroke="black" fill="black" d="m318.09647,321.57501l0,-6.58002l-0.21997,-1.30002l0.21997,7.88004z" id="svg_41"/>
  <path stroke-width="0.2" stroke="black" fill="black" d="m317.8765,313.69498l0.21997,1.30002l-0.21997,-2.58997l0,1.28995z" id="svg_40"/>
  <path stroke-width="0.2" stroke="black" fill="black" d="m318.09647,314.995l0,-2.58997l-0.21997,0l0.21997,2.58997z" id="svg_39"/>
  <path stroke-width="0.2" stroke="black" fill="black" d="m318.09647,321.57501l0.17001,0l-0.17001,-6.58002l0,6.58002z" id="svg_38"/>
  <path stroke-width="0.2" stroke="black" fill="black" d="m318.26648,321.57501l0,-5.27002l-0.17001,-1.31l0.17001,6.58002z" id="svg_37"/>
  <path stroke-width="0.2" stroke="black" fill="black" d="m318.09647,314.995l0.17001,1.31l-0.17001,-3.89996l0,2.58997l0,-0.00001z" id="svg_36"/>
  <path stroke-width="0.2" stroke="black" fill="black" d="m318.26648,316.30499l0,-3.89996l-0.17001,0l0.17001,3.89996z" id="svg_35"/>
  <path stroke-width="0.2" stroke="black" fill="black" d="m318.26648,321.57501l0.13998,0l-0.13998,-5.27002l0,5.27002z" id="svg_34"/>
  <path stroke-width="0.2" stroke="black" fill="black" d="m318.40646,321.57501l0,-3.96002l-0.13998,-1.31l0.13998,5.27002z" id="svg_33"/>
  <path stroke-width="0.2" stroke="black" fill="black" d="m318.26648,316.30499l0.13998,1.31l-0.13998,-5.20996l0,3.89996z" id="svg_32"/>
  <path stroke-width="0.2" stroke="black" fill="black" d="m318.40646,317.61499l0,-5.20996l-0.13998,0l0.13998,5.20996z" id="svg_31"/>
  <path stroke-width="0.2" stroke="black" fill="black" d="m318.40646,321.57501l0.10004,0l-0.10004,-3.96002l0,3.96002z" id="svg_30"/>
  <path stroke-width="0.2" stroke="black" fill="black" d="m318.5065,321.57501l0,-2.64001l-0.10004,-1.32001l0.10004,3.96002z" id="svg_29"/>
  <path stroke-width="0.2" stroke="black" fill="black" d="m318.40646,317.61499l0.10004,1.32001l-0.10004,-6.52997l0,5.20996z" id="svg_28"/>
  <path stroke-width="0.2" stroke="black" fill="black" d="m318.5065,318.935l0,-6.52997l-0.10004,0l0.10004,6.52997z" id="svg_27"/>
  <path stroke-width="0.2" stroke="black" fill="black" d="m318.5065,321.57501l0.06,0l-0.06,-2.64001l0,2.64001z" id="svg_26"/>
  <path stroke-width="0.2" stroke="black" fill="black" d="m318.5665,321.57501l0,-1.32004l-0.06,-1.31998l0.06,2.64001l0,0.00001z" id="svg_25"/>
  <path stroke-width="0.2" stroke="black" fill="black" d="m318.5065,318.935l0.06,1.31998l-0.06,-7.84995l0,6.52997z" id="svg_24"/>
  <path stroke-width="0.2" stroke="black" fill="black" d="m318.5665,320.25497l0,-7.84995l-0.06,0l0.06,7.84995z" id="svg_23"/>
  <path stroke-width="0.2" stroke="black" fill="black" d="m274.65646,327.11502l43.93002,0l-43.93002,-5.54001l0,5.54001z" id="svg_22"/>
  <path stroke-width="0.2" stroke="black" fill="black" d="m318.58649,327.11502l0,-5.54001l-43.93002,0l43.93002,5.54001z" id="svg_21"/>
  <path stroke-width="0.2" stroke="black" fill="black" d="m318.5665,321.57501l0.01999,0l-0.01999,-1.32004l0,1.32004z" id="svg_20"/>
  <path stroke-width="0.2" stroke="black" fill="black" d="m318.5665,320.25497l0.01999,1.32004l-0.01999,-9.16998l0,7.84995l0,-0.00001z" id="svg_19"/>
  <path stroke-width="0.2" stroke="black" fill="black" d="m318.58649,321.57501l0,-9.16998l-0.01999,0l0.01999,9.16998z" id="svg_18"/>
  <path stroke-width="0.2" stroke="black" fill="black" d="m318.58649,327.11502l1.90997,0l-1.90997,-5.54001l0,5.54001z" id="svg_17"/>
  <path stroke-width="0.2" stroke="black" fill="black" d="m320.49646,327.11502l0,-5.54001l-1.90997,0l1.90997,5.54001z" id="svg_16"/>
  <path stroke-width="0.2" stroke="black" fill="black" d="m318.58649,321.57501l1.90997,0l-1.90997,-9.16998l0,9.16998z" id="svg_15"/>
  <path stroke-width="0.2" stroke="black" fill="black" d="m320.49646,321.57501l0,-9.16998l-1.90997,0l1.90997,9.16998z" id="svg_14"/>
  <path stroke-width="0.5" stroke="black" fill="none" d="m272.74646,327.11502l0,-5.54001l0,5.54001z" id="svg_13"/>
  <path stroke-width="0.5" stroke="black" fill="none" d="m272.74646,321.57501l0,-9.16998l0,9.16998z" id="svg_12"/>
  <path stroke-width="0.5" stroke="black" fill="none" d="m272.74646,312.40503l47.75,0" id="svg_11"/>
  <path stroke-width="0.5" stroke="black" fill="none" d="m272.74646,321.57501l47.75,0" id="svg_10"/>
  <path stroke-width="0.5" stroke="black" fill="none" d="m320.49646,327.11502l0,-14.70999l0,14.70999z" id="svg_9"/>
  <path stroke-width="0.5" stroke="black" fill="none" d="m318.58649,327.11502l0,-5.54001l0,5.54001z" id="svg_8"/>
  <path stroke-width="0.5" stroke="black" fill="none" d="m274.65646,327.11502l0,-5.54001l0,5.54001z" id="svg_7"/>
  <path stroke-width="0.5" stroke="black" fill="none" d="m272.74646,327.11502l47.75,0" id="svg_6"/>
  <rect stroke-width="0" id="svg_5" height="15" width="49" y="312.5" x="271.7565" stroke="#000" fill="#fff"/>
  <rect stroke="#000" stroke-width="0" id="svg_2" height="10" width="50" y="66.91627" x="8.99989" fill="#000000"/>
  <line id="svg_1" y2="59.99947" x2="53.12458" y1="60.24946" x1="3.1254" stroke="black" fill="none"/>
  <g stroke="null" id="svg_53">
   <path stroke="black" fill="#ffffff" d="m52.92971,50.22166a49.18193,45.87 0 0 0 -49.17973,-45.86797" id="svg_4"/>
   <path stroke="black" fill="#ffffff" d="m3.91666,50.05521l0,-46.03441l0,46.03441z" id="svg_3"/>
  </g>
  <path d="m36.87484,26.25002c0,0 0.03429,-0.05922 0.49999,0.25c1.92013,1.27492 5.32597,4.18266 7.74987,6.99989c1.17576,1.36655 2.08951,2.44816 1.99997,2.99995c-0.05663,0.34898 -2.60207,-0.21916 -7.74987,-2.24997c-6.1396,-2.42207 -11.82633,-5.86686 -16.24973,-8.49986c-2.8009,-1.66722 -4.30285,-2.67849 -4.99992,-3.24995c-0.27341,-0.22415 -0.28681,-0.20672 0,0c1.36047,0.98057 3.97331,2.29914 6.2499,3.49994c1.97777,1.04319 2.74995,1.49998 3.24995,1.74997l0.25,0" id="svg_57" stroke-width="0" stroke="black" fill="#ffffff"/>
  <rect stroke="black" id="svg_59" height="37.74967" width="24.99978" y="12.375" x="4.54187" stroke-width="0" fill="#ffffff"/>
  <rect id="svg_60" height="0.375" width="0" y="34.24946" x="12.06263" stroke-width="0" stroke="black" fill="#ffffff"/>
  <rect id="svg_61" height="13.62488" width="26.74976" y="36.49944" x="23.18754" stroke-width="0" stroke="black" fill="#ffffff"/>
  <rect id="svg_62" height="13.37488" width="18.62484" y="24.87454" x="21.81255" stroke-width="0" stroke="black" fill="#ffffff"/>
  <rect id="svg_63" height="6.62494" width="8.24993" y="6.0622" x="4.3752" stroke-width="0" stroke="black" fill="#ffffff"/>
  <rect transform="rotate(0.166316 5.18769 5.99971)" id="svg_65" height="1.99998" width="1.62499" y="4.99971" x="4.3752" stroke-width="0" stroke="black" fill="#ffffff"/>
  <rect id="svg_66" height="2.81247" width="2.81247" y="47.31168" x="49.46791" stroke-width="0" stroke="black" fill="#ffffff"/>
  <rect stroke="black" id="svg_67" height="0.74999" width="4.24995" y="49.31166" x="48.15541" stroke-width="0" fill="#ffffff"/>
 </g>

</svg>