<svg width="55" height="55" xmlns="http://www.w3.org/2000/svg">
 <g id="Layer_1">
  <title>Layer 1</title>
  <desc>Produce by Acme CAD Converter</desc>
  <path id="svg_2" d="m274.98996,329.61502l1.91,0l-1.91,-5.54001l0,5.54001z" fill="black" stroke="black" stroke-width="0.2"/>
  <path id="svg_3" d="m276.89996,329.61502l0,-5.54001l-1.91,0l1.91,5.54001z" fill="black" stroke="black" stroke-width="0.2"/>
  <path id="svg_4" d="m274.98996,324.07501l1.91,0l-1.91,-9.16998l0,9.16998z" fill="black" stroke="black" stroke-width="0.2"/>
  <path id="svg_5" d="m276.89996,324.07501l0,-9.16998l-1.91,0l1.91,9.16998z" fill="black" stroke="black" stroke-width="0.2"/>
  <path id="svg_6" d="m276.89996,324.07501l42.96002,0l-42.96002,-9.16998l0,9.16998z" fill="black" stroke="black" stroke-width="0.2"/>
  <path id="svg_7" d="m319.85999,324.07501l0,-9.16998l-42.96002,0l42.96002,9.16998z" fill="black" stroke="black" stroke-width="0.2"/>
  <path id="svg_8" d="m319.85999,324.07501l0.26001,0l-0.26001,-9.16998l0,9.16998z" fill="black" stroke="black" stroke-width="0.2"/>
  <path id="svg_9" d="m320.12,324.07501l0,-7.88004l-0.26001,-1.28995l0.26001,9.16998l0,0.00001z" fill="black" stroke="black" stroke-width="0.2"/>
  <path id="svg_10" d="m320.12,316.19498l0,-1.28995l-0.26001,0l0.26001,1.28995z" fill="black" stroke="black" stroke-width="0.2"/>
  <path id="svg_11" d="m320.12,324.07501l0.21997,0l-0.21997,-7.88004l0,7.88004z" fill="black" stroke="black" stroke-width="0.2"/>
  <path id="svg_12" d="m320.33997,324.07501l0,-6.58002l-0.21997,-1.30002l0.21997,7.88004z" fill="black" stroke="black" stroke-width="0.2"/>
  <path id="svg_13" d="m320.12,316.19498l0.21997,1.30002l-0.21997,-2.58997l0,1.28995z" fill="black" stroke="black" stroke-width="0.2"/>
  <path id="svg_14" d="m320.33997,317.495l0,-2.58997l-0.21997,0l0.21997,2.58997z" fill="black" stroke="black" stroke-width="0.2"/>
  <path id="svg_15" d="m320.33997,324.07501l0.17001,0l-0.17001,-6.58002l0,6.58002z" fill="black" stroke="black" stroke-width="0.2"/>
  <path id="svg_16" d="m320.50998,324.07501l0,-5.27002l-0.17001,-1.31l0.17001,6.58002z" fill="black" stroke="black" stroke-width="0.2"/>
  <path id="svg_17" d="m320.33997,317.495l0.17001,1.31l-0.17001,-3.89996l0,2.58997l0,-0.00001z" fill="black" stroke="black" stroke-width="0.2"/>
  <path id="svg_18" d="m320.50998,318.80499l0,-3.89996l-0.17001,0l0.17001,3.89996z" fill="black" stroke="black" stroke-width="0.2"/>
  <path id="svg_19" d="m320.50998,324.07501l0.13998,0l-0.13998,-5.27002l0,5.27002z" fill="black" stroke="black" stroke-width="0.2"/>
  <path id="svg_20" d="m320.64996,324.07501l0,-3.96002l-0.13998,-1.31l0.13998,5.27002z" fill="black" stroke="black" stroke-width="0.2"/>
  <path id="svg_21" d="m320.50998,318.80499l0.13998,1.31l-0.13998,-5.20996l0,3.89996z" fill="black" stroke="black" stroke-width="0.2"/>
  <path id="svg_22" d="m320.64996,320.11499l0,-5.20996l-0.13998,0l0.13998,5.20996z" fill="black" stroke="black" stroke-width="0.2"/>
  <path id="svg_23" d="m320.64996,324.07501l0.10004,0l-0.10004,-3.96002l0,3.96002z" fill="black" stroke="black" stroke-width="0.2"/>
  <path id="svg_24" d="m320.75,324.07501l0,-2.64001l-0.10004,-1.32001l0.10004,3.96002z" fill="black" stroke="black" stroke-width="0.2"/>
  <path id="svg_25" d="m320.64996,320.11499l0.10004,1.32001l-0.10004,-6.52997l0,5.20996z" fill="black" stroke="black" stroke-width="0.2"/>
  <path id="svg_26" d="m320.75,321.435l0,-6.52997l-0.10004,0l0.10004,6.52997z" fill="black" stroke="black" stroke-width="0.2"/>
  <path id="svg_27" d="m320.75,324.07501l0.06,0l-0.06,-2.64001l0,2.64001z" fill="black" stroke="black" stroke-width="0.2"/>
  <path id="svg_28" d="m320.81,324.07501l0,-1.32004l-0.06,-1.31998l0.06,2.64001l0,0.00001z" fill="black" stroke="black" stroke-width="0.2"/>
  <path id="svg_29" d="m320.75,321.435l0.06,1.31998l-0.06,-7.84995l0,6.52997z" fill="black" stroke="black" stroke-width="0.2"/>
  <path id="svg_30" d="m320.81,322.75497l0,-7.84995l-0.06,0l0.06,7.84995z" fill="black" stroke="black" stroke-width="0.2"/>
  <path id="svg_31" d="m276.89996,329.61502l43.93002,0l-43.93002,-5.54001l0,5.54001z" fill="black" stroke="black" stroke-width="0.2"/>
  <path id="svg_32" d="m320.82999,329.61502l0,-5.54001l-43.93002,0l43.93002,5.54001z" fill="black" stroke="black" stroke-width="0.2"/>
  <path id="svg_33" d="m320.81,324.07501l0.01999,0l-0.01999,-1.32004l0,1.32004z" fill="black" stroke="black" stroke-width="0.2"/>
  <path id="svg_34" d="m320.81,322.75497l0.01999,1.32004l-0.01999,-9.16998l0,7.84995l0,-0.00001z" fill="black" stroke="black" stroke-width="0.2"/>
  <path id="svg_35" d="m320.82999,324.07501l0,-9.16998l-0.01999,0l0.01999,9.16998z" fill="black" stroke="black" stroke-width="0.2"/>
  <path id="svg_36" d="m320.82999,329.61502l1.90997,0l-1.90997,-5.54001l0,5.54001z" fill="black" stroke="black" stroke-width="0.2"/>
  <path id="svg_37" d="m322.73996,329.61502l0,-5.54001l-1.90997,0l1.90997,5.54001z" fill="black" stroke="black" stroke-width="0.2"/>
  <path id="svg_38" d="m320.82999,324.07501l1.90997,0l-1.90997,-9.16998l0,9.16998z" fill="black" stroke="black" stroke-width="0.2"/>
  <path id="svg_39" d="m322.73996,324.07501l0,-9.16998l-1.90997,0l1.90997,9.16998z" fill="black" stroke="black" stroke-width="0.2"/>
  <path id="svg_40" d="m274.98996,329.61502l0,-5.54001l0,5.54001z" fill="none" stroke="black" stroke-width="0.5"/>
  <path id="svg_41" d="m274.98996,324.07501l0,-9.16998l0,9.16998z" fill="none" stroke="black" stroke-width="0.5"/>
  <path id="svg_42" d="m274.98996,314.90503l47.75,0" fill="none" stroke="black" stroke-width="0.5"/>
  <path id="svg_43" d="m274.98996,324.07501l47.75,0" fill="none" stroke="black" stroke-width="0.5"/>
  <path id="svg_44" d="m322.73996,329.61502l0,-14.70999l0,14.70999z" fill="none" stroke="black" stroke-width="0.5"/>
  <path id="svg_45" d="m320.82999,329.61502l0,-5.54001l0,5.54001z" fill="none" stroke="black" stroke-width="0.5"/>
  <path id="svg_46" d="m276.89996,329.61502l0,-5.54001l0,5.54001z" fill="none" stroke="black" stroke-width="0.5"/>
  <path id="svg_49" d="m274.98996,329.61502l47.75,0" fill="none" stroke="black" stroke-width="0.5"/>
  <rect fill="#fff" stroke="#000" x="274" y="315" width="49" height="15" id="svg_1" stroke-width="0"/>
  <desc>Produce by Acme CAD Converter</desc>
  <desc>Produce by Acme CAD Converter</desc>
  <desc>Produce by Acme CAD Converter</desc>
  <g id="svg_53">
   <path fill="none" d="m51.81834,46.56504l0,-44.17991l0,44.17991z" id="svg_51" stroke="black"/>
   <g id="svg_52">
    <path fill="none" d="m51.98474,2.76017a48.80693,43.932 0 0 0 -48.80472,43.93002" id="svg_50" stroke="black"/>
    <rect id="svg_48" height="10" width="50" y="42.61486" x="2.5" stroke-width="0" fill="#000000" stroke="black"/>
   </g>
  </g>
 </g>

</svg>