<svg width="60" height="60" xmlns="http://www.w3.org/2000/svg">
 <g id="Layer_1">
  <title>Layer 1</title>
  <desc>Produce by Acme CAD Converter</desc>
  <path stroke-width="0.2" stroke="black" fill="black" d="m274.98996,329.61502l1.91,0l-1.91,-5.54001l0,5.54001z" id="svg_2"/>
  <path stroke-width="0.2" stroke="black" fill="black" d="m276.89996,329.61502l0,-5.54001l-1.91,0l1.91,5.54001z" id="svg_3"/>
  <path stroke-width="0.2" stroke="black" fill="black" d="m274.98996,324.07501l1.91,0l-1.91,-9.16998l0,9.16998z" id="svg_4"/>
  <path stroke-width="0.2" stroke="black" fill="black" d="m276.89996,324.07501l0,-9.16998l-1.91,0l1.91,9.16998z" id="svg_5"/>
  <path stroke-width="0.2" stroke="black" fill="black" d="m276.89996,324.07501l42.96002,0l-42.96002,-9.16998l0,9.16998z" id="svg_6"/>
  <path stroke-width="0.2" stroke="black" fill="black" d="m319.85999,324.07501l0,-9.16998l-42.96002,0l42.96002,9.16998z" id="svg_7"/>
  <path stroke-width="0.2" stroke="black" fill="black" d="m319.85999,324.07501l0.26001,0l-0.26001,-9.16998l0,9.16998z" id="svg_8"/>
  <path stroke-width="0.2" stroke="black" fill="black" d="m320.12,324.07501l0,-7.88004l-0.26001,-1.28995l0.26001,9.16998l0,0.00001z" id="svg_9"/>
  <path stroke-width="0.2" stroke="black" fill="black" d="m320.12,316.19498l0,-1.28995l-0.26001,0l0.26001,1.28995z" id="svg_10"/>
  <path stroke-width="0.2" stroke="black" fill="black" d="m320.12,324.07501l0.21997,0l-0.21997,-7.88004l0,7.88004z" id="svg_11"/>
  <path stroke-width="0.2" stroke="black" fill="black" d="m320.33997,324.07501l0,-6.58002l-0.21997,-1.30002l0.21997,7.88004z" id="svg_12"/>
  <path stroke-width="0.2" stroke="black" fill="black" d="m320.12,316.19498l0.21997,1.30002l-0.21997,-2.58997l0,1.28995z" id="svg_13"/>
  <path stroke-width="0.2" stroke="black" fill="black" d="m320.33997,317.495l0,-2.58997l-0.21997,0l0.21997,2.58997z" id="svg_14"/>
  <path stroke-width="0.2" stroke="black" fill="black" d="m320.33997,324.07501l0.17001,0l-0.17001,-6.58002l0,6.58002z" id="svg_15"/>
  <path stroke-width="0.2" stroke="black" fill="black" d="m320.50998,324.07501l0,-5.27002l-0.17001,-1.31l0.17001,6.58002z" id="svg_16"/>
  <path stroke-width="0.2" stroke="black" fill="black" d="m320.33997,317.495l0.17001,1.31l-0.17001,-3.89996l0,2.58997l0,-0.00001z" id="svg_17"/>
  <path stroke-width="0.2" stroke="black" fill="black" d="m320.50998,318.80499l0,-3.89996l-0.17001,0l0.17001,3.89996z" id="svg_18"/>
  <path stroke-width="0.2" stroke="black" fill="black" d="m320.50998,324.07501l0.13998,0l-0.13998,-5.27002l0,5.27002z" id="svg_19"/>
  <path stroke-width="0.2" stroke="black" fill="black" d="m320.64996,324.07501l0,-3.96002l-0.13998,-1.31l0.13998,5.27002z" id="svg_20"/>
  <path stroke-width="0.2" stroke="black" fill="black" d="m320.50998,318.80499l0.13998,1.31l-0.13998,-5.20996l0,3.89996z" id="svg_21"/>
  <path stroke-width="0.2" stroke="black" fill="black" d="m320.64996,320.11499l0,-5.20996l-0.13998,0l0.13998,5.20996z" id="svg_22"/>
  <path stroke-width="0.2" stroke="black" fill="black" d="m320.64996,324.07501l0.10004,0l-0.10004,-3.96002l0,3.96002z" id="svg_23"/>
  <path stroke-width="0.2" stroke="black" fill="black" d="m320.75,324.07501l0,-2.64001l-0.10004,-1.32001l0.10004,3.96002z" id="svg_24"/>
  <path stroke-width="0.2" stroke="black" fill="black" d="m320.64996,320.11499l0.10004,1.32001l-0.10004,-6.52997l0,5.20996z" id="svg_25"/>
  <path stroke-width="0.2" stroke="black" fill="black" d="m320.75,321.435l0,-6.52997l-0.10004,0l0.10004,6.52997z" id="svg_26"/>
  <path stroke-width="0.2" stroke="black" fill="black" d="m320.75,324.07501l0.06,0l-0.06,-2.64001l0,2.64001z" id="svg_27"/>
  <path stroke-width="0.2" stroke="black" fill="black" d="m320.81,324.07501l0,-1.32004l-0.06,-1.31998l0.06,2.64001l0,0.00001z" id="svg_28"/>
  <path stroke-width="0.2" stroke="black" fill="black" d="m320.75,321.435l0.06,1.31998l-0.06,-7.84995l0,6.52997z" id="svg_29"/>
  <path stroke-width="0.2" stroke="black" fill="black" d="m320.81,322.75497l0,-7.84995l-0.06,0l0.06,7.84995z" id="svg_30"/>
  <path stroke-width="0.2" stroke="black" fill="black" d="m276.89996,329.61502l43.93002,0l-43.93002,-5.54001l0,5.54001z" id="svg_31"/>
  <path stroke-width="0.2" stroke="black" fill="black" d="m320.82999,329.61502l0,-5.54001l-43.93002,0l43.93002,5.54001z" id="svg_32"/>
  <path stroke-width="0.2" stroke="black" fill="black" d="m320.81,324.07501l0.01999,0l-0.01999,-1.32004l0,1.32004z" id="svg_33"/>
  <path stroke-width="0.2" stroke="black" fill="black" d="m320.81,322.75497l0.01999,1.32004l-0.01999,-9.16998l0,7.84995l0,-0.00001z" id="svg_34"/>
  <path stroke-width="0.2" stroke="black" fill="black" d="m320.82999,324.07501l0,-9.16998l-0.01999,0l0.01999,9.16998z" id="svg_35"/>
  <path stroke-width="0.2" stroke="black" fill="black" d="m320.82999,329.61502l1.90997,0l-1.90997,-5.54001l0,5.54001z" id="svg_36"/>
  <path stroke-width="0.2" stroke="black" fill="black" d="m322.73996,329.61502l0,-5.54001l-1.90997,0l1.90997,5.54001z" id="svg_37"/>
  <path stroke-width="0.2" stroke="black" fill="black" d="m320.82999,324.07501l1.90997,0l-1.90997,-9.16998l0,9.16998z" id="svg_38"/>
  <path stroke-width="0.2" stroke="black" fill="black" d="m322.73996,324.07501l0,-9.16998l-1.90997,0l1.90997,9.16998z" id="svg_39"/>
  <path stroke-width="0.5" stroke="black" fill="none" d="m274.98996,329.61502l0,-5.54001l0,5.54001z" id="svg_40"/>
  <path stroke-width="0.5" stroke="black" fill="none" d="m274.98996,324.07501l0,-9.16998l0,9.16998z" id="svg_41"/>
  <path stroke-width="0.5" stroke="black" fill="none" d="m274.98996,314.90503l47.75,0" id="svg_42"/>
  <path stroke-width="0.5" stroke="black" fill="none" d="m274.98996,324.07501l47.75,0" id="svg_43"/>
  <path stroke-width="0.5" stroke="black" fill="none" d="m322.73996,329.61502l0,-14.70999l0,14.70999z" id="svg_44"/>
  <path stroke-width="0.5" stroke="black" fill="none" d="m320.82999,329.61502l0,-5.54001l0,5.54001z" id="svg_45"/>
  <path stroke-width="0.5" stroke="black" fill="none" d="m276.89996,329.61502l0,-5.54001l0,5.54001z" id="svg_46"/>
  <path stroke-width="0.5" stroke="black" fill="none" d="m274.98996,329.61502l47.75,0" id="svg_49"/>
  <rect stroke-width="0" id="svg_1" height="15" width="49" y="315" x="274" stroke="#000" fill="#fff"/>
  <path stroke="black" fill="none" d="m54.33989,47.93005a48.93192,43.932 0 0 0 -48.92973,-43.93005" id="svg_47"/>
  <path stroke="black" fill="none" d="m5.41016,47.93005l0,-43.93005l0,43.93005z" id="svg_48"/>
  <rect stroke="#000" stroke-width="0" id="svg_100" height="11" width="50" y="44" x="4.91016" fill="#ffffff"/>
 </g>

</svg>