<svg width="50" height="65" xmlns="http://www.w3.org/2000/svg" preserveAspectRatio="xMidYMid meet" version="1.0">

 <g>
  <title>Layer 1</title>
  <g stroke="null" id="svg_1" fill="#000000" transform="translate(0 300) scale(0.1 -0.1)">
   <path stroke="null" id="svg_2" d="m40.87016,2959.97346c-9.19531,-8.48095 -6.6875,-373.93299 2.50781,-417.87975c10.03125,-51.65672 52.66404,-110.25241 100.31246,-137.23726c33.43749,-20.04589 45.14061,-22.35888 108.67183,-22.35888c63.53122,0 75.23434,2.31299 108.67183,22.35888c47.64842,27.75585 90.28121,86.35154 101.14839,138.77925c4.17969,22.35888 6.6875,124.90133 5.85156,228.98577l-2.50781,188.12299l-209.82022,2.31299c-115.35933,0.771 -211.4921,-0.771 -214.83585,-3.08398zm412.11701,-60.90867l0,-50.11473l-200.62491,0l-200.62491,0l0,50.11473l0,50.11473l200.62491,0l200.62491,0l0,-50.11473zm-1.67187,-218.19183l-2.50781,-153.42818l-28.42186,-41.63378c-17.55468,-26.98485 -41.79686,-50.88573 -66.03903,-65.53465c-34.27342,-19.2749 -46.81248,-22.35888 -101.98433,-22.35888c-55.17185,0 -67.71091,3.08398 -101.98433,22.35888c-24.24218,14.64892 -48.48435,38.54979 -66.03903,65.53465l-28.42186,41.63378l-2.50781,153.42818l-3.34375,152.65718l202.29679,0l202.29679,0l-3.34375,-152.65718z"/>
   <path stroke="null" id="svg_3" d="m218.92477,2704.00284c-127.06245,-30.83983 -152.9765,-181.18403 -42.63279,-248.26067c41.79686,-24.67187 110.3437,-24.67187 152.14056,0c91.95309,55.5117 93.62496,174.24506 3.34375,228.98577c-29.2578,17.7329 -81.0859,26.21386 -112.85151,19.2749zm110.3437,-26.21386c75.23434,-48.57274 83.59371,-135.69527 19.22655,-195.06195c-58.5156,-53.96971 -133.74994,-53.96971 -192.26554,0c-37.61717,34.69481 -48.48435,67.07664 -40.12498,117.19137c6.6875,34.69481 65.2031,91.74851 99.47652,97.14548c38.45311,5.39697 89.44527,-3.08398 113.68745,-19.2749z"/>
  </g>
 </g>
</svg>